<svg width="20" height="21" viewBox="0 0 20 21" fill="none" xmlns="http://www.w3.org/2000/svg">
<path fill-rule="evenodd" clip-rule="evenodd" d="M9.78385 1.25439C14.8465 1.25439 18.9505 5.35845 18.9505 10.4211C18.9505 15.4837 14.8465 19.5877 9.78385 19.5877C4.72125 19.5877 0.617188 15.4837 0.617188 10.4211C0.617188 5.35845 4.72125 1.25439 9.78385 1.25439ZM9.78385 2.21931C5.25415 2.21931 1.5821 5.89135 1.5821 10.4211C1.5821 14.9508 5.25415 18.6228 9.78385 18.6228C14.3136 18.6228 17.9856 14.9508 17.9856 10.4211C17.9856 5.89135 14.3136 2.21931 9.78385 2.21931ZM9.38211 8.20433C8.56976 8.58276 7.87885 9.23534 7.18741 10.1895C7.08881 10.3255 7.08482 10.4082 7.18613 10.4813C7.25734 10.5327 7.29872 10.5163 7.40246 10.4056C7.41633 10.3907 7.41633 10.3907 7.43053 10.3753C7.5202 10.2782 7.59244 10.1958 7.74673 10.0166C8.25655 9.42456 8.50558 9.18087 8.8926 8.95799C9.22751 8.76513 9.52185 9.04856 9.4658 9.41128C9.45007 9.5131 9.42299 9.58825 9.35321 9.7496C9.32545 9.81379 9.31375 9.84171 9.30073 9.87593C9.17495 10.2066 9.069 10.4824 8.84699 11.0585L8.83637 11.0861C8.76925 11.2603 8.76925 11.2603 8.70219 11.4344C8.41143 12.1901 8.235 12.6535 8.05297 13.1435L8.04229 13.1722C8.00974 13.2596 7.97731 13.347 7.945 13.4345C7.73642 14.0002 7.61713 14.3677 7.52641 14.7586C7.51224 14.8194 7.51224 14.8194 7.49788 14.8813C7.44676 15.1024 7.41941 15.2449 7.40411 15.3913C7.37766 15.6446 7.39893 15.852 7.47851 16.0263C7.56858 16.2235 7.76208 16.3646 7.98286 16.3966C8.35066 16.45 8.70553 16.4462 9.00948 16.3771C9.18053 16.3382 9.34977 16.2873 9.51584 16.2248C9.99664 16.0441 10.4598 15.762 10.9085 15.3891C11.301 15.062 11.6724 14.6634 12.0618 14.1681C12.0958 14.1252 12.0958 14.1252 12.1296 14.0824C12.2472 13.9324 12.3048 13.835 12.3264 13.7322C12.3497 13.6205 12.2553 13.5072 12.1798 13.5451C12.1425 13.5638 12.1035 13.6026 12.0441 13.6776C12.0015 13.7322 11.9784 13.7613 11.9553 13.7875C11.8629 13.8921 11.7654 13.9991 11.6598 14.1122C11.4856 14.2985 11.3086 14.4808 11.052 14.7404C10.9212 14.8725 10.7568 14.9881 10.5801 15.075C10.2971 15.214 10.0419 15.0388 10.0726 14.7252C10.0928 14.5182 10.1429 14.3041 10.2179 14.0972C10.3818 13.6449 10.5157 13.2793 10.812 12.4735C10.9405 12.124 10.996 11.973 11.0653 11.7841C11.2708 11.224 11.4348 10.7732 11.5909 10.3382C11.7837 9.80081 11.8926 9.40026 11.943 8.98662C11.9811 8.67464 11.8943 8.37625 11.6963 8.17112C11.4768 7.94371 11.1647 7.83895 10.7759 7.84356C10.3457 7.84867 9.84384 7.98923 9.38211 8.20433ZM12.3267 4.49544C11.5536 4.19466 10.626 4.71139 10.4706 5.52984C10.358 6.12304 10.5796 6.63519 11.0319 6.8497C11.9285 7.27491 13.0045 6.59358 13.0046 5.60049C13.0046 5.04806 12.7687 4.66742 12.3267 4.49544Z" fill="#d9d9d9"/>
</svg>
